<svg width="30" height="30" viewBox="0 0 30 30" fill="none" xmlns="http://www.w3.org/2000/svg">
<path d="M15.0016 0.599609C7.04856 0.599609 0.601562 7.04661 0.601562 14.9996C0.601562 22.9526 7.04856 29.3996 15.0016 29.3996C22.9546 29.3996 29.4016 22.9526 29.4016 14.9996C29.4016 7.04661 22.9546 0.599609 15.0016 0.599609ZM20.5396 16.8461C20.5396 16.8461 21.8131 18.1031 22.1266 18.6866C22.1356 18.6986 22.1401 18.7106 22.1431 18.7166C22.2706 18.9311 22.3006 19.0976 22.2376 19.2221C22.1326 19.4291 21.7726 19.5311 21.6496 19.5401H19.3996C19.2436 19.5401 18.9166 19.4996 18.5206 19.2266C18.2161 19.0136 17.9161 18.6641 17.6236 18.3236C17.1871 17.8166 16.8091 17.3786 16.4281 17.3786C16.3797 17.3785 16.3316 17.3861 16.2856 17.4011C15.9976 17.4941 15.6286 17.9051 15.6286 19.0001C15.6286 19.3421 15.3586 19.5386 15.1681 19.5386H14.1376C13.7866 19.5386 11.9581 19.4156 10.3381 17.7071C8.35506 15.6146 6.57006 11.4176 6.55506 11.3786C6.44256 11.1071 6.67506 10.9616 6.92856 10.9616H9.20106C9.50406 10.9616 9.60306 11.1461 9.67206 11.3096C9.75306 11.5001 10.0501 12.2576 10.5376 13.1096C11.3281 14.4986 11.8126 15.0626 12.2011 15.0626C12.2739 15.0618 12.3455 15.0432 12.4096 15.0086C12.9166 14.7266 12.8221 12.9191 12.7996 12.5441C12.7996 12.4736 12.7981 11.7356 12.5386 11.3816C12.3526 11.1251 12.0361 11.0276 11.8441 10.9916C11.9218 10.8844 12.0242 10.7974 12.1426 10.7381C12.4906 10.5641 13.1176 10.5386 13.7401 10.5386H14.0866C14.7616 10.5476 14.9356 10.5911 15.1801 10.6526C15.6751 10.7711 15.6856 11.0906 15.6421 12.1841C15.6286 12.4946 15.6151 12.8456 15.6151 13.2596C15.6151 13.3496 15.6106 13.4456 15.6106 13.5476C15.5956 14.1041 15.5776 14.7356 15.9706 14.9951C16.0218 15.0273 16.0811 15.0444 16.1416 15.0446C16.2781 15.0446 16.6891 15.0446 17.8021 13.1351C18.1453 12.5205 18.4436 11.8818 18.6946 11.2241C18.7171 11.1851 18.7831 11.0651 18.8611 11.0186C18.9186 10.9893 18.9825 10.9743 19.0471 10.9751H21.7186C22.0096 10.9751 22.2091 11.0186 22.2466 11.1311C22.3126 11.3096 22.2346 11.8541 21.0151 13.5056L20.4706 14.2241C19.3651 15.6731 19.3651 15.7466 20.5396 16.8461Z" fill="url(#paint0_diamond_1267_805)"/>
<defs>
<radialGradient id="paint0_diamond_1267_805" cx="0" cy="0" r="1" gradientUnits="userSpaceOnUse" gradientTransform="translate(29.4016 4.37963) rotate(119.514) scale(47.5732 324.66)">
<stop stop-color="#4111D5"/>
<stop offset="1" stop-color="#17064A"/>
</radialGradient>
</defs>
</svg>
