<svg width="45" height="45" viewBox="0 0 45 45" fill="none" xmlns="http://www.w3.org/2000/svg">
<rect width="45" height="45" rx="22.5" fill="url(#paint0_diamond_981_8465)"/>
<path d="M22.5 21.7969C21.5676 21.7969 20.6734 21.4265 20.0141 20.7672C19.3548 20.1079 18.9844 19.2137 18.9844 18.2812C18.9844 17.3488 19.3548 16.4546 20.0141 15.7953C20.6734 15.136 21.5676 14.7656 22.5 14.7656C23.4324 14.7656 24.3266 15.136 24.9859 15.7953C25.6452 16.4546 26.0156 17.3488 26.0156 18.2812C26.0156 18.7429 25.9247 19.2001 25.748 19.6266C25.5713 20.0532 25.3124 20.4407 24.9859 20.7672C24.6595 21.0936 24.2719 21.3526 23.8454 21.5293C23.4188 21.7059 22.9617 21.7969 22.5 21.7969ZM22.5 8.4375C19.8893 8.4375 17.3855 9.47461 15.5394 11.3207C13.6934 13.1667 12.6563 15.6705 12.6562 18.2812C12.6563 25.6641 22.5 36.5625 22.5 36.5625C22.5 36.5625 32.3438 25.6641 32.3438 18.2812C32.3438 15.6705 31.3066 13.1667 29.4606 11.3207C27.6145 9.47461 25.1107 8.4375 22.5 8.4375Z" fill="white"/>
<defs>
<radialGradient id="paint0_diamond_981_8465" cx="0" cy="0" r="1" gradientUnits="userSpaceOnUse" gradientTransform="translate(45 5.90629) rotate(119.514) scale(74.3331 507.282)">
<stop stop-color="#4111D5"/>
<stop offset="1" stop-color="#17064A"/>
</radialGradient>
</defs>
</svg>
