<svg xmlns="http://www.w3.org/2000/svg" width="32" height="32" viewBox="0 0 32 32" fill="none">
<path d="M17.375 19.3164H14.5156L13.918 7.86719H17.9727L17.375 19.3164ZM13.8711 23.3242C13.8711 22.5898 14.0703 22.0742 14.4688 21.7773C14.875 21.4805 15.3633 21.332 15.9336 21.332C16.4883 21.332 16.9648 21.4805 17.3633 21.7773C17.7695 22.0742 17.9727 22.5898 17.9727 23.3242C17.9727 24.0273 17.7695 24.5352 17.3633 24.8477C16.9648 25.1602 16.4883 25.3164 15.9336 25.3164C15.3633 25.3164 14.875 25.1602 14.4688 24.8477C14.0703 24.5352 13.8711 24.0273 13.8711 23.3242Z" fill="white"/>
<rect x="0.5" y="0.5" width="31" height="31" rx="15.5" stroke="white"/>
</svg>