<svg xmlns="http://www.w3.org/2000/svg" width="54" height="54" viewBox="0 0 54 54" fill="none">
<path d="M27.0026 0.333496C12.2826 0.333496 0.335938 12.2802 0.335938 27.0002C0.335938 41.7202 12.2826 53.6668 27.0026 53.6668C41.7226 53.6668 53.6693 41.7202 53.6693 27.0002C53.6693 12.2802 41.7226 0.333496 27.0026 0.333496ZM21.6693 36.3335V17.6668C21.6693 17.4192 21.7382 17.1765 21.8684 16.9659C21.9986 16.7552 22.1848 16.585 22.4063 16.4743C22.6278 16.3635 22.8757 16.3166 23.1223 16.3389C23.369 16.3611 23.6045 16.4516 23.8026 16.6002L36.2559 25.9335C36.9759 26.4668 36.9759 27.5335 36.2559 28.0668L23.8026 37.4002C23.6045 37.5487 23.369 37.6392 23.1223 37.6614C22.8757 37.6837 22.6278 37.6368 22.4063 37.5261C22.1848 37.4153 21.9986 37.2451 21.8684 37.0345C21.7382 36.8238 21.6693 36.5811 21.6693 36.3335Z" fill="white"/>
</svg>
