<svg width="1082" height="589" viewBox="0 0 1082 589" fill="none" xmlns="http://www.w3.org/2000/svg">
<path d="M928.177 586.569C931.36 584.243 931.37 583.732 928.391 574.771C926.678 569.619 923.821 563.607 922.041 561.411C919.222 557.933 919.119 556.81 921.239 552.727C922.578 550.148 924.505 547.936 925.521 547.811C926.537 547.685 928.913 547.481 930.8 547.356C934.947 547.081 936.995 540.57 934.436 535.794C933.121 533.338 933.228 531.553 934.805 529.655C937.061 526.938 936.997 526.674 930.981 513.966C929.195 510.191 929.142 508.418 930.76 506.47C932.399 504.496 932.255 503.401 930.124 501.634C928.608 500.377 927.368 497.401 927.368 495.02C927.368 492.64 926.746 490.692 925.985 490.692C924.396 490.692 919.157 498.328 919.607 499.988C919.772 500.596 917.874 502.18 915.389 503.508C912.905 504.837 910.396 507.822 909.813 510.141C909.23 512.461 908.081 514.359 907.259 514.359C906.437 514.359 904.584 515.539 903.14 516.981C899.313 520.805 893.617 518.542 889.952 511.743C887.675 507.517 885.385 505.746 882.008 505.6C879.399 505.488 874.153 505.093 870.35 504.722C866.547 504.352 863.045 504.68 862.568 505.451C861.291 507.515 854.695 505.845 849.452 502.131C842.96 497.533 841.301 496.585 837.181 495.124C833.72 493.897 833.752 493.775 837.8 492.704L842.062 491.576L837.344 486.489C834.749 483.691 832.626 480.625 832.626 479.675C832.626 478.725 831.77 477.948 830.724 477.948C829.678 477.948 826.604 475.86 823.892 473.308C819.277 468.964 818.085 468.728 805.296 469.614C785.7 470.972 783.435 471.364 783.41 473.397C783.398 474.398 780.528 477.068 777.033 479.33C769.809 484.006 769.069 486.991 774.323 490.269C778.397 492.812 779.277 501.398 775.817 504.855C774.631 506.04 773.588 512.527 773.489 519.328C773.332 530.182 772.704 532.299 768.229 537.057L763.147 542.461L755.097 539.568C748.493 537.195 746.474 537.093 743.865 538.999C741.267 540.897 739.775 540.855 735.737 538.768C731.29 536.471 730.135 536.599 724.304 540.037C720.736 542.14 717.343 545.747 716.764 548.052C716.022 551.008 713.952 552.572 709.739 553.362C706.454 553.977 702.314 556.084 700.539 558.044C698.765 560.003 696.471 561.086 695.442 560.451C694.412 559.815 688.852 559.465 683.086 559.673C674.367 559.988 671.979 559.383 668.901 556.082C666.493 553.5 663.885 552.457 661.435 553.098C658.901 553.76 657.059 552.944 655.806 550.605C653.476 546.255 640.584 545.829 632.872 549.848C630.002 551.343 626.138 552.572 624.285 552.578C620.468 552.591 610.345 542.579 610.345 538.79C610.345 536.083 601.332 530.743 596.764 530.743C592.252 530.743 580.448 523.76 579.067 520.273C578.042 517.685 577.782 517.892 577.677 521.378C577.607 523.737 575.5 528.1 572.994 531.075C568.256 536.702 567.015 544.977 570.402 548.361C571.805 549.762 571.016 551.671 567.638 555.045C563.803 558.878 561.801 559.558 557.021 558.654C553.781 558.04 550.142 556.764 548.933 555.818C547.724 554.871 545.989 554.557 545.077 555.121C543.197 556.282 538.606 551.506 536.844 546.557C535.97 544.1 534.149 543.401 529.735 543.826C526.471 544.14 522.981 543.414 521.979 542.212C520.583 540.538 517.817 540.917 510.136 543.835C504.625 545.93 497.783 547.554 494.933 547.445C491.219 547.304 490.025 547.962 490.719 549.768C491.801 552.586 488.948 554.035 479.32 555.558C475.726 556.126 472.221 556.937 471.53 557.36C470.839 557.784 468.379 556.118 466.064 553.658C463.531 550.968 459.336 548.958 455.535 548.613C450.163 548.124 448.962 547.151 447.528 542.122C446.599 538.867 444.729 536.205 443.371 536.205C441.839 536.205 440.901 534.121 440.901 530.714C440.901 526.228 439.731 524.665 434.506 522.176C429.948 520.004 427.549 519.69 426.154 521.084C423.068 524.168 417.321 521.664 414.363 515.948C411.508 510.431 406.284 508.815 406.284 513.448C406.284 514.95 405.054 516.179 403.551 516.179C401.41 516.179 400.818 513.687 400.818 504.676C400.818 498.35 399.532 488.848 397.961 483.561C396.39 478.274 395.484 473.569 395.948 473.105C396.412 472.641 394.828 470.145 392.428 467.557C387.025 461.732 386.988 460.513 392.164 458.854C395.727 457.712 395.323 457.357 389.072 456.139C383.892 455.13 381.188 455.43 379.403 457.214C376.912 459.702 369.983 459.607 363.77 456.998C361.161 455.903 360.96 455.267 362.85 454.1C364.751 452.926 364.491 452.015 361.637 449.86C359.637 448.35 357.002 447.089 355.781 447.057C354.56 447.025 354.033 445.77 354.61 444.268C355.377 442.271 354.382 441.538 350.909 441.538C346.371 441.538 344.559 438.281 347.476 435.367C348.2 434.643 348.974 431.23 349.194 427.781C349.523 422.649 348.954 421.512 346.055 421.512C344.108 421.512 340.919 419.918 338.97 417.97C336.133 415.135 334.325 414.742 329.925 416.003C323.923 417.723 307.598 414.822 288.766 408.687C282.754 406.729 276.669 405.127 275.245 405.127C273.821 405.127 271.208 403.818 269.439 402.218C267.669 400.618 265.448 399.787 264.502 400.371C261.699 402.102 260.68 411.281 262.965 414.23C264.791 416.586 264.657 416.629 261.993 414.545C257.139 410.749 250.417 412.498 250.939 417.422C251.43 422.044 246.512 423.099 242.484 419.236C240.545 417.377 240.294 418.293 241.114 424.243C243.306 440.167 243.287 440.5 240.118 441.142C238.413 441.488 235.245 439.732 233.076 437.24C230.908 434.748 228.13 433.095 226.902 433.565C224.001 434.678 220.956 430.886 220.162 425.172C219.775 422.39 218.131 420.372 215.907 419.948C213.913 419.568 211.163 417.661 209.796 415.711C208.4 413.719 206.132 412.617 204.622 413.196C203.143 413.763 199.949 413.729 197.523 413.121C194.156 412.276 193.113 410.795 193.113 406.858C193.113 400.553 190.356 398.445 187.824 402.813C186.402 405.267 186.1 403.956 186.56 397.325C187.051 390.249 186.515 388.265 183.704 386.762C181.8 385.744 180.366 383.93 180.517 382.731C181.19 377.375 180.141 375.8 176.26 376.34C173.197 376.765 172.015 375.89 171.587 372.883C171.077 369.302 170.221 368.968 163.844 369.859C159.634 370.447 156.673 370.114 156.673 369.051C156.673 368.056 153.189 367.417 148.93 367.632C142.602 367.95 141.084 368.722 140.625 371.856C140.315 373.965 138.85 376.156 137.367 376.724C134.39 377.866 132.067 373.739 133.535 369.917C135.304 365.311 132.2 363.463 124.44 364.503C118.545 365.293 116.646 366.425 115.841 369.63C114.78 373.854 107.48 377.323 107.48 373.603C107.48 372.472 106.179 373.404 104.589 375.672C102.385 378.816 102.192 380.392 103.779 382.302C105.391 384.243 105.118 385.224 102.571 386.657C99.4798 388.394 99.5382 388.746 103.537 392.481C106.441 395.195 107.461 397.689 106.75 400.337C106.177 402.471 105.697 405.241 105.683 406.493C105.669 407.744 104.428 408.768 102.925 408.768C99.6325 408.768 99.2687 415.265 102.451 417.231C107.528 420.366 95.3864 420.767 88.1018 417.705C81.5073 414.933 79.9558 414.854 75.6766 417.072C72.9873 418.466 70.2291 419.529 69.5473 419.434C63.7234 418.619 61.8971 420.01 62.2755 424.972C62.4969 427.876 61.6371 431.505 60.3648 433.037C58.4459 435.347 58.652 436.143 61.5735 437.706C63.5106 438.741 65.6133 439.072 66.246 438.439C66.8789 437.807 67.3966 438.246 67.3966 439.414C67.3966 440.671 64.4812 441.538 60.2535 441.538C52.5114 441.538 52.9804 440.771 49.9474 458.378C49.0586 463.537 47.9015 465.204 45.2104 465.204C37.6218 465.204 34.6011 461.848 34.6011 453.414C34.6011 449.003 33.7279 444.854 32.6607 444.195C31.5935 443.536 30.8605 440.825 31.0318 438.171C31.8451 425.569 30.9593 422.436 25.7432 419.472C21.4631 417.04 20.3778 414.974 19.557 407.698C19.0096 402.845 17.6439 398.569 16.5222 398.195C13.7839 397.283 9.09341 387.989 9.09341 383.475C9.09341 381.479 7.54183 378.76 5.64544 377.433C2.69751 375.37 2.03808 371.778 1.09872 352.668L0 330.316L4.3996 335.059C8.27767 339.241 9.24858 339.522 12.5903 337.437C15.6363 335.536 17.0975 335.518 20.0253 337.345C23.2968 339.387 23.6692 339.163 23.6692 335.16C23.6692 332.707 24.4891 330.194 25.4912 329.576C26.4933 328.957 27.3196 329.113 27.3274 329.923C27.3416 331.398 35.8615 335.947 38.6082 335.947C41.3597 335.947 40.0677 330.667 36.8785 328.878C34.0609 327.298 34.0243 326.961 36.5643 325.983C40.1483 324.602 49.1769 327.881 49.1769 330.563C49.1769 333.221 56.9279 330.775 58.8328 327.517C59.6341 326.146 61.4789 325.024 62.9322 325.024C64.3855 325.024 65.5746 324.301 65.5746 323.416C65.5746 322.531 67.2144 321.379 69.2186 320.856C73.7178 319.68 74.1844 310.305 70.1302 302.537C68.6397 299.682 67.8936 295.461 68.4722 293.158C69.3544 289.646 68.6529 288.779 64.1248 287.785C59.4702 286.764 58.7847 285.85 59.1539 281.16C59.3894 278.169 61.3404 274.084 63.4894 272.083C68.1542 267.741 68.2352 266.953 64.5571 261.706C61.8754 257.881 61.9738 257.558 66.3282 255.904C69.061 254.866 71.4422 252.148 72.175 249.231C73.2142 245.094 72.3244 243.314 66.5909 238.064L59.7707 231.819L64.8355 226.537C70.8269 220.288 72.1197 220.04 73.3904 224.895C74.0891 227.565 75.8756 228.536 80.0874 228.536C83.8216 228.536 85.3954 227.832 84.5853 226.522C82.8379 223.697 87.3583 210.229 91.6895 205.356C93.6767 203.12 96.8127 200.812 98.6583 200.227C102.154 199.118 103.386 191.368 100.363 189.501C99.4552 188.94 99.1167 186.936 99.6109 185.048C100.105 183.159 99.6183 181.063 98.5289 180.391C95.5709 178.564 96.1388 173.921 99.3202 173.921C100.845 173.921 103.026 171.873 104.168 169.369C105.309 166.866 107.341 164.818 108.683 164.818C110.026 164.818 111.124 164.028 111.124 163.062C111.124 162.096 112.888 160.362 115.044 159.209C118.383 157.423 118.797 157.549 117.834 160.055C116.327 163.979 119.417 163.815 122.408 159.812C123.717 158.059 128.722 154.774 133.529 152.512C143.028 148.04 147.54 148.868 151.23 155.757C154.498 161.859 156.803 159.895 155.551 152.075C154.741 147.015 155.046 144.792 156.548 144.792C157.737 144.792 158.149 143.885 157.464 142.777C156.65 141.462 157.404 141.135 159.634 141.836C166.877 144.114 183.023 146.613 190.498 146.613C198.314 146.613 205.133 142.563 203.033 139.168C201.09 136.026 204.191 130.463 208.23 129.845C210.438 129.508 212.039 128.227 211.788 126.999C211.538 125.771 212.972 124.767 214.977 124.767C217.227 124.767 218.626 123.548 218.635 121.581C218.648 118.512 225.979 113.844 230.785 113.844C232.065 113.844 234.555 111.591 236.318 108.837C240.738 101.934 244.254 99.4099 249.594 99.3094C255.975 99.1892 258.06 97.4068 259.482 90.8545C260.523 86.0555 261.748 84.9935 267.271 84.0978C272.089 83.3167 275.135 83.9671 278.769 86.5521C281.487 88.4865 284.117 89.664 284.613 89.1687C285.109 88.6735 286.603 89.5793 287.934 91.1818C289.518 93.0887 289.71 94.5191 288.49 95.322C286.041 96.9324 284.094 104.741 286.14 104.741C287.013 104.741 288.711 106.578 289.914 108.823C292.601 113.84 292.125 151.858 289.333 155.22C288.283 156.485 284.357 158.437 280.609 159.559C274.997 161.239 273.013 161.086 269.355 158.692C262.694 154.331 256.784 135.894 256.842 119.66C256.861 114.464 253.752 116.065 251.001 122.668C248.391 128.932 248.269 129.417 248 134.657C247.851 137.553 246.354 139.515 243.673 140.328C236.619 142.465 231.374 148.619 231.374 154.759C231.374 157.888 230.39 161.432 229.188 162.634C227.749 164.071 227.676 164.818 228.975 164.818C230.061 164.818 231.378 166.457 231.902 168.459C232.966 172.525 237.655 173.323 239.921 169.825C240.732 168.573 241.395 165.519 241.395 163.037C241.395 160.221 242.574 158.293 244.533 157.907C247.038 157.413 247.624 158.529 247.439 163.442C246.973 175.811 255.542 181.945 259.088 171.781C260.996 166.313 261.069 166.287 271.173 167.548C277.318 168.316 282.217 170.007 283.559 171.824C284.801 173.507 285.028 175.1 284.073 175.442C281.213 176.465 284.189 179.382 288.093 179.382C292.479 179.382 296.321 175.888 297.243 171.061C297.618 169.095 299.694 167.295 301.958 166.972C304.183 166.655 307.576 164.396 309.5 161.952C311.711 159.143 314.069 157.921 315.913 158.628C319.329 159.938 319.465 161.089 316.977 167.628C315.575 171.313 314.556 172.024 312.783 170.554C308.676 167.148 302.869 170.116 301.995 176.067C300.949 183.188 304.998 187.391 311.373 185.802C322.759 182.964 337.543 184.247 342.075 188.466C344.345 190.58 346.431 191.338 347.081 190.287C347.694 189.296 349.914 188.485 352.014 188.485C355.706 188.485 355.724 188.605 352.566 192.092C349.829 195.114 349.688 196.166 351.693 198.581C353.153 200.339 355.639 201.073 358.066 200.465C360.582 199.834 363.131 200.666 365 202.73C366.84 204.761 370.091 205.846 373.61 205.602C378.695 205.25 379.156 205.639 378.194 209.468C377.288 213.078 377.76 213.657 381.305 213.279C387.325 212.638 389.886 210.622 389.886 206.526C389.886 200 394.945 200.584 401.67 207.885C408.046 214.808 411.127 220.663 409.335 222.454C408.826 222.962 410.007 224.974 411.959 226.925C413.91 228.875 415.994 232.903 416.589 235.875C417.184 238.848 418.698 241.28 419.953 241.28C423.705 241.28 426.713 236.266 425.415 232.178C424.744 230.068 425.184 227.18 426.398 225.718C427.947 223.853 427.992 223.075 426.549 223.075C423.332 223.075 424.153 217.722 428.148 212.649C430.152 210.103 431.791 206.082 431.791 203.714C431.791 200.659 432.823 199.408 435.343 199.408C437.297 199.408 442.801 195.722 447.574 191.216C452.348 186.71 456.436 183.023 456.658 183.023C456.88 183.023 459.165 183.822 461.735 184.799C468.047 187.197 467.812 193.327 461.104 201.297C457.254 205.871 456.05 208.892 456.717 212.309C457.286 215.227 456.532 218.119 454.734 219.916C453.139 221.51 451.833 223.539 451.833 224.423C451.833 225.308 450.177 229.458 448.152 233.645C445.828 238.451 444.892 242.935 445.612 245.804C446.437 249.088 445.913 250.671 443.723 251.511C442.056 252.15 441.133 253.822 441.673 255.227C442.278 256.802 440.92 258.44 438.134 259.499C435.647 260.443 433.613 261.995 433.613 262.948C433.613 263.901 430.962 266.002 427.721 267.617C422.238 270.35 421.668 270.335 419.522 267.403C418.254 265.669 417.216 264.918 417.216 265.732C417.216 266.547 415.986 266.193 414.483 264.947C412.828 263.575 411.75 263.428 411.75 264.575C411.75 269.213 414.46 272.551 420.159 274.93C425.699 277.243 427.11 277.139 434.51 273.868C445.218 269.136 452.653 262.115 453.112 256.304C453.595 250.183 455.56 248.449 460.539 249.75C465.197 250.967 467.938 258.686 464.818 261.803C462.276 264.343 462.102 272.229 464.587 272.229C465.589 272.229 468.13 273.948 470.233 276.05L474.057 279.871L472.701 275.602C471.955 273.254 470.04 270.38 468.445 269.215C465.81 267.289 465.834 266.779 468.711 263.603C470.451 261.681 471.875 258.336 471.875 256.17C471.875 251.403 465.034 243.111 461.07 243.073C459.497 243.057 457.153 242.375 455.862 241.556C452.925 239.694 455.718 231.392 461.277 225.462C463.958 222.602 464.807 219.73 464.288 215.28C463.566 209.108 466.009 204.87 470.288 204.87C471.504 204.87 474.203 203.436 476.286 201.684C479.976 198.58 480.001 198.592 477.243 202.139C475.686 204.141 474.19 208.432 473.919 211.674C473.518 216.483 474.29 217.962 478.117 219.704C480.696 220.878 482.807 222.527 482.807 223.367C482.807 224.208 484.011 224.895 485.483 224.895C488.917 224.895 487.035 219.426 482.471 216.145C478.469 213.267 478.11 208.511 481.896 208.511C483.399 208.511 484.629 209.33 484.629 210.331C484.629 211.333 485.954 212.152 487.574 212.152C489.587 212.152 490.228 211.039 489.6 208.639C488.928 206.071 489.572 205.194 491.995 205.376C493.817 205.513 494.907 206.275 494.416 207.068C493.925 207.862 494.786 208.511 496.329 208.511C497.872 208.511 499.651 210.566 500.282 213.078C500.978 215.846 503.145 218.075 505.783 218.737C511.088 220.067 511.416 222.316 506.492 223.602C504.004 224.253 502.848 226.086 502.848 229.384C502.848 232.432 503.588 233.757 504.852 232.976C506.042 232.241 505.884 233.492 504.465 236.054C503.15 238.428 502.335 241.189 502.653 242.19C503.344 244.366 504.337 248.935 504.531 250.838C504.736 252.842 510.136 252.507 510.136 250.49C510.136 249.548 509.348 248.29 508.384 247.695C507.262 247.002 507.262 244.956 508.384 242.007C509.348 239.474 510.136 234.944 510.136 231.939C510.136 228.935 511.032 224.804 512.127 222.76C513.567 220.072 513.567 218.492 512.127 217.054C511.032 215.96 510.136 213.885 510.136 212.443C510.136 211.002 508.916 208.913 507.425 207.801C505.478 206.35 505.024 203.896 505.817 199.103L506.921 192.426L519.459 192.731C528.3 192.946 531.998 193.726 531.999 195.376C532 197.097 532.901 197.234 535.406 195.894C537.986 194.515 538.713 192.313 538.403 186.821C538.128 181.944 538.84 179.245 540.578 178.579C542 178.034 542.708 176.852 542.152 175.954C540.708 173.619 552.45 168.459 559.207 168.459C562.595 168.459 565.336 167.351 565.959 165.728C567.124 162.693 572.083 161.956 572.083 164.818C572.083 165.819 573.56 166.639 575.364 166.639C579.436 166.639 588.448 162.569 588.467 160.722C588.475 159.971 590.389 159.357 592.721 159.357C596.353 159.357 596.85 158.608 596.192 154.129C595.217 147.489 603.999 138.155 608.056 141.519C610.061 143.182 610.079 143.844 608.154 145.087C606.261 146.309 606.335 146.97 608.523 148.406C610.026 149.392 612.281 150.211 613.533 150.226C614.786 150.241 615.811 151.893 615.811 153.895C615.811 158.152 619.094 158.773 620.618 154.805C622.242 150.577 630.295 151.573 637.232 156.859C642.055 160.535 642.939 162.02 641.048 163.266C639.046 164.584 639.181 165.344 641.774 167.329C646.354 170.836 645.775 173.308 638.601 180.869C635.103 184.557 632.233 188.424 632.224 189.462C632.216 190.501 628.519 195.253 624.01 200.023C619.5 204.792 615.837 209.678 615.869 210.879C615.901 212.103 616.99 211.663 618.347 209.876C619.678 208.124 622.467 206.69 624.543 206.69C626.763 206.69 628.813 205.135 629.517 202.918C630.224 200.693 631.748 199.541 633.231 200.109C634.615 200.64 636.942 199.88 638.403 198.421C641.853 194.973 647.928 195.016 649.265 198.498C649.842 200 651.208 201.229 652.301 201.229C653.393 201.229 653.836 200.499 653.284 199.607C651.813 197.228 660.471 192.126 665.981 192.126C668.593 192.126 671.96 193.355 673.463 194.857C676.984 198.375 685.58 198.347 692.455 194.794C697.065 192.412 697.576 191.468 695.924 188.385C693.246 183.384 695.19 181.136 701.161 182.33C704.512 182.999 707.001 182.376 708.583 180.471C710.729 177.887 711.492 177.981 716.34 181.431C719.445 183.64 721.307 186.323 720.747 187.781C720.192 189.227 720.921 190.305 722.453 190.305C725.516 190.305 726.033 193.173 723.278 194.875C720.614 196.52 723.188 199.843 726.225 198.679C727.883 198.043 728.773 198.97 728.773 201.331C728.773 203.579 730.68 205.74 733.784 207.011C740.884 209.918 746.22 209.712 745.427 206.561C745.067 205.13 744.493 201.279 744.151 198.003C743.63 193.001 743.995 192.306 746.431 193.669C750.617 196.009 756.103 194.067 756.103 190.245C756.103 186.06 759.521 184.887 764.807 187.255C770.048 189.604 775.167 185.839 770.663 182.948C768.404 181.497 768.617 181.019 771.924 180.112C775.481 179.136 775.678 178.511 773.783 174.195C772.617 171.541 770.913 168.838 769.995 168.188C769.077 167.538 768.985 165.49 769.791 163.637C770.598 161.783 771.171 159.785 771.066 159.197C770.962 158.608 774.316 156.374 778.521 154.231C784.882 150.989 786.264 150.787 786.755 153.025C787.47 156.295 790.649 156.613 790.902 153.44C791.002 152.188 791.654 153.212 792.351 155.716C794.315 162.772 797.038 161.095 797.662 152.443C798.125 146.029 799.049 144.307 802.791 142.885C809.491 140.34 811.138 140.74 809.908 144.614C808.891 147.813 809.389 147.946 816.467 146.357C820.68 145.411 825.346 145.105 826.837 145.676C829.826 146.822 838.092 140.026 838.092 136.422C838.092 135.172 840.214 131.628 842.809 128.547C846.73 123.89 848.847 122.946 855.367 122.946C860.657 122.946 863.551 123.835 864.258 125.677C866.516 131.556 880.675 127.058 879.889 120.711C879.272 115.734 882.527 109.844 886.788 108.225C889.247 107.291 892.201 104.032 893.352 100.984C894.841 97.043 896.372 95.6838 898.652 96.2794C900.415 96.7401 902.36 96.3033 902.976 95.3088C903.591 94.3143 905.611 93.897 907.465 94.3815C909.32 94.866 911.787 94.1182 912.949 92.7196C915.964 89.0894 911.88 84.7152 905.477 84.7152C898.297 84.7152 897.541 80.3617 903.596 73.8852C906.452 70.8301 908.413 68.3305 907.955 68.3305C907.496 68.3305 908.602 65.7019 910.412 62.4893C915.405 53.628 922.454 48.025 939.211 39.5976C942.217 38.0856 946.06 35.6594 947.751 34.206C949.441 32.7525 951.61 32.0485 952.57 32.6415C953.531 33.2345 954.819 32.4105 955.433 30.8104C956.112 29.0428 957.697 28.3406 959.471 29.021C961.636 29.851 962.093 29.3622 961.236 27.1328C960.217 24.4781 961.37 24.2415 971.054 25.1189C979.737 25.9056 982.028 25.5791 982.028 23.555C982.028 22.04 980.17 20.9969 977.473 20.9969C972.184 20.9969 971.835 19.998 975.755 16.0808C977.316 14.5213 978.178 12.164 977.67 10.8425C977.14 9.46093 978.451 7.91159 980.754 7.19732C982.958 6.51405 987.015 4.36823 989.771 2.42885C995.04 -1.27905 994.844 -1.43091 995.51 6.88782C995.61 8.13944 996.512 9.77792 997.514 10.5289C998.659 11.3868 998.34 12.5341 996.656 13.6158C995.182 14.5626 994.412 15.773 994.945 16.3054C995.913 17.2727 1002.68 18.7856 1007.19 19.0411C1008.53 19.1173 1009 20.1058 1008.25 21.3063C1007.37 22.7384 1007.93 23.0553 1009.97 22.2737C1011.95 21.5146 1013 22.039 1013 23.7848C1013 25.2553 1012.18 26.4585 1011.18 26.4585C1010.18 26.4585 1009.53 27.0729 1009.73 27.8239C1009.94 28.5748 1007.68 31.7299 1004.7 34.8351C1000.33 39.3987 998.694 40.1044 996.175 38.5164C993.725 36.9727 992.474 37.3232 990.333 40.1526C988.835 42.133 987.583 45.5967 987.552 47.8496C987.508 50.963 986.426 51.9458 983.046 51.9458C980.6 51.9458 978.092 51.1265 977.473 50.1253C975.797 47.4155 973.456 47.9195 972.17 51.2668C970.762 54.9341 976.268 59.4418 980.575 58.1481C982.813 57.4761 984.732 59.2797 987.458 64.6198C991.595 72.7229 990.557 77.4873 983.876 81.0602C981.631 82.2606 980.756 84.0296 981.478 85.9086C982.524 88.6333 982.786 88.6311 984.799 85.8809C986.001 84.2385 988.739 82.8947 990.883 82.8947C993.027 82.8947 994.781 82.0202 994.781 80.9515C994.781 78.6857 1002.37 80.6234 1004.12 83.3344C1004.84 84.4472 1005.71 84.3777 1006.47 83.1472C1008.02 80.644 1020.79 81.0082 1022.48 83.6038C1023.99 85.9115 1017.11 93.8178 1013.59 93.8178C1010.59 93.8178 1010.4 96.8972 1013.35 97.8778C1014.7 98.3272 1015.7 103.618 1016 111.88C1016.27 119.184 1017.37 127.819 1018.44 131.069C1019.52 134.318 1020.71 138.633 1021.1 140.658C1021.5 142.682 1022.63 147.308 1023.64 150.937C1025.37 157.192 1025.23 157.536 1021.1 157.536C1015.67 157.536 1011.28 165.318 1010.87 175.647C1010.62 181.931 1010.19 182.654 1007.85 180.724C1005.48 178.766 1005.26 179.483 1006.16 186.209C1006.91 191.842 1006.55 193.947 1004.84 193.947C1000.92 193.947 1000.09 201.669 1003.5 206.383C1005.22 208.763 1008.67 214.508 1011.18 219.151C1015.72 227.562 1022.11 231.532 1022.11 225.939C1022.11 224.364 1023.44 223.075 1025.06 223.075C1027.06 223.075 1027.71 224.188 1027.09 226.571C1026.41 229.175 1027.4 230.412 1030.97 231.421C1033.62 232.166 1036.48 232.612 1037.33 232.413C1038.19 232.215 1040.44 232.545 1042.34 233.148C1046.43 234.445 1047.01 239.46 1043.06 239.46C1041.56 239.46 1040.33 240.988 1040.33 242.855C1040.33 247.744 1047.27 255.844 1051.45 255.844C1055.73 255.844 1058.04 260.719 1055.15 263.613C1054.01 264.747 1053.08 268.673 1053.08 272.338C1053.08 277.245 1054.24 279.865 1057.46 282.281C1061.61 285.398 1061.7 285.904 1059.36 292.548C1057.39 298.11 1057.36 299.537 1059.2 299.537C1062.23 299.537 1069.48 316.248 1069.48 323.221C1069.48 330.379 1064.79 330.456 1058.13 323.407C1055.4 320.515 1049.67 316.332 1045.41 314.112C1030.22 306.2 1002.07 280.232 1002.07 274.129C1002.07 269.277 998.263 261.306 995.947 261.306C994.798 261.306 994.914 260.446 996.239 259.121C999.473 255.89 999.057 236.788 995.692 233.998C994.189 232.752 992.959 230.242 992.959 228.421C992.959 226.6 992.1 224.579 991.049 223.931C989.718 223.108 989.72 222.051 991.058 220.44C992.427 218.792 992.073 215.695 989.825 209.634C987.202 202.563 987.066 200.511 989.01 197.399C991.662 193.156 990.555 191.022 981.422 182.774C978.131 179.802 976.106 176.162 976.106 173.216C976.106 167.726 973.478 167.051 969.988 171.645C966.61 176.091 966.875 178.916 971.096 183.443C973.159 185.656 974.74 189.867 974.74 193.152C974.74 196.343 975.24 201.454 975.852 204.511C976.748 208.986 976.385 209.983 973.986 209.631C972.348 209.391 969.751 207.402 968.215 205.212C964.989 200.609 961.986 200.005 961.986 203.959C961.986 205.461 960.679 206.69 959.082 206.69C957.485 206.69 955.75 208.329 955.226 210.331C954.702 212.334 953.614 213.972 952.808 213.972C950.225 213.972 948.783 224.892 951.012 227.575C952.168 228.967 953.583 234.873 954.157 240.699C954.732 246.526 956.377 253.619 957.814 256.463C960.324 261.43 960.564 261.508 963.939 258.456C965.997 256.596 967.452 256.156 967.452 257.395C967.452 258.558 965.402 261.29 962.897 263.467C960.392 265.643 958.342 268.56 958.342 269.949C958.342 271.609 957.146 272.095 954.851 271.367C952.932 270.759 950.881 271.036 950.295 271.984C949.708 272.932 947.589 273.279 945.586 272.756C943.054 272.094 941.944 272.701 941.944 274.747C941.944 276.366 941.329 277.594 940.578 277.475C935.161 276.62 932.638 278.215 931.658 283.111C930.542 288.688 928.045 291.545 921.253 295.021C919.105 296.12 917.466 298.434 917.611 300.162C917.794 302.336 917.229 302.77 915.781 301.569C914.358 300.389 911.519 301.817 906.928 306.022C896.706 315.381 893.982 320.396 895.301 327.422C895.926 330.752 895.82 334.094 895.065 334.848C894.31 335.603 893.545 340.298 893.365 345.283C893.185 350.267 892.161 355.4 891.089 356.69C890.018 357.98 889.222 364.38 889.32 370.913C889.418 377.445 888.59 384.485 887.481 386.557C886.371 388.629 885.463 392.377 885.463 394.887C885.463 397.397 884.643 399.957 883.641 400.576C882.639 401.195 881.819 403.291 881.819 405.235C881.819 407.931 883.088 408.768 887.177 408.768C890.125 408.768 893.039 407.955 893.653 406.961C894.271 405.963 896.74 407.389 899.169 410.147C902.695 414.15 903.579 414.508 903.625 411.954C903.695 408.083 907.327 407.637 907.327 411.499C907.327 413.001 908.557 414.23 910.06 414.23C911.563 414.23 912.793 413.001 912.793 411.499C912.793 409.997 914.022 408.768 915.526 408.768C918.638 408.768 919.233 404.123 916.348 402.342C912.808 400.156 918.585 395.638 923.621 396.655C934.664 398.883 940.299 400.665 940.243 401.911C940.21 402.645 943.11 406.171 946.687 409.745C950.779 413.834 952.789 417.292 952.107 419.069C950.668 422.815 954.457 435.131 958.324 439.279C960.018 441.095 963.597 446.944 966.277 452.277C971.136 461.942 971.148 462.075 970.334 494.992C969.47 529.877 968.98 535.903 966.701 539.586C965.923 540.844 965.767 543.786 966.354 546.124C967.734 551.614 961.242 566.345 954.953 571.993C950.946 575.593 948.857 576.14 942.438 575.269L934.733 574.224L933.551 581.612C932.612 587.48 931.595 589 928.609 589C925.027 589 925.007 588.885 928.177 586.569ZM1015.89 496.012C1013.15 492.93 1011.35 489.243 1011.89 487.819C1012.44 486.395 1012.15 485.23 1011.26 485.23C1009.4 485.23 1003.89 474.925 1003.89 471.445C1003.89 470.179 1001.12 467.43 997.729 465.337C994.339 463.244 990.493 458.876 989.182 455.631C987.871 452.385 984.014 446.043 980.611 441.538C977.208 437.032 973.307 430.683 971.942 427.429C970.286 423.483 968.215 421.512 965.723 421.512C961.984 421.512 954.698 415.643 954.698 412.632C954.698 411.754 953.468 410.015 951.965 408.768C950.462 407.522 949.232 405.233 949.232 403.682C949.232 402.131 947.83 399.314 946.116 397.422C943.693 394.747 943.514 393.664 945.311 392.555C948.56 390.548 945.93 381.209 941.813 380.133C939.924 379.639 938.965 378.208 939.532 376.73C941.052 372.773 943.677 373.706 945.655 378.906C946.645 381.506 949.084 384.059 951.076 384.58C953.068 385.1 954.698 386.685 954.698 388.102C954.698 389.518 956.133 391.188 957.887 391.813C963.47 393.802 965.794 396.364 963.988 398.542C961.823 401.153 966.649 407.094 973.373 410.095C976.129 411.325 978.384 413.168 978.384 414.191C978.384 415.214 979.283 416.05 980.381 416.05C981.48 416.05 987.424 420.473 993.59 425.878C999.757 431.283 1007.67 436.951 1011.18 438.473L1017.56 441.241L1008.84 441.389C998.241 441.57 997.129 443.609 1001.16 455.477C1005.21 467.405 1010.83 476.115 1014.52 476.185C1016.19 476.217 1019.15 477.45 1021.1 478.925C1023.06 480.4 1025.99 481.181 1027.63 480.661C1031.58 479.409 1036.26 488.704 1032.77 490.862C1031.51 491.637 1029.74 491.814 1028.84 491.254C1027.93 490.695 1028.3 489.532 1029.66 488.672C1031.48 487.52 1031.53 487.099 1029.85 487.079C1025.92 487.03 1020.56 493.646 1022.3 496.394C1026.8 503.498 1022.33 503.232 1015.89 496.012ZM1007.68 489.933C1007.6 488.014 1008.03 486.939 1008.64 487.544C1009.24 488.149 1009.31 489.719 1008.78 491.033C1008.2 492.485 1007.77 492.054 1007.68 489.933ZM1058.55 482.148C1058.55 476.971 1059.45 474.353 1061.49 473.569C1064 472.608 1064.25 473.449 1063.17 479.291C1061.33 489.323 1058.55 491.038 1058.55 482.148ZM1065.28 469.503C1062.72 466.941 1063.91 451.07 1066.75 449.982C1068.25 449.406 1069.48 447.679 1069.48 446.146C1069.48 444.613 1070.3 443.358 1071.3 443.358C1073.79 443.358 1073.6 445.425 1070.41 453.047C1068.92 456.618 1068.17 460.764 1068.74 462.261C1069.96 465.444 1067.14 471.358 1065.28 469.503ZM1075.08 432.998C1075.01 429.803 1075.77 426.682 1076.77 426.063C1078.96 424.714 1078.96 430.085 1076.77 435.166C1075.45 438.235 1075.18 437.894 1075.08 432.998ZM1080.7 405.127C1080.7 402.624 1081.12 401.6 1081.62 402.852C1082.13 404.103 1082.13 406.151 1081.62 407.403C1081.12 408.654 1080.7 407.63 1080.7 405.127ZM899.128 396.025C898.508 395.023 898.87 394.204 899.931 394.204C900.992 394.204 901.861 395.023 901.861 396.025C901.861 397.026 901.499 397.845 901.057 397.845C900.615 397.845 899.747 397.026 899.128 396.025ZM1073.98 372.266C1072.31 369.561 1073.64 368.603 1076.56 370.409C1078.13 371.376 1078.31 372.314 1077.09 373.07C1076.05 373.712 1074.65 373.351 1073.98 372.266ZM1071.3 359.614C1071.3 358.613 1072.12 357.794 1073.13 357.794C1074.13 357.794 1074.95 358.613 1074.95 359.614C1074.95 360.615 1074.13 361.435 1073.13 361.435C1072.12 361.435 1071.3 360.615 1071.3 359.614ZM1069.33 349.601C1069.18 348.6 1069.16 347.133 1069.29 346.342C1069.42 345.55 1068.74 343.423 1067.77 341.614C1066.58 339.386 1066.69 337.649 1068.11 336.226C1070.73 333.607 1073.75 333.459 1072.17 336.027C1071.52 337.072 1071.81 338.918 1072.82 340.129C1074.06 341.628 1073.85 343.778 1072.13 346.876C1070.74 349.376 1069.49 350.603 1069.33 349.601ZM951.054 276.888C951.054 276.446 951.874 275.579 952.876 274.96C953.878 274.341 954.698 274.702 954.698 275.763C954.698 276.823 953.878 277.691 952.876 277.691C951.874 277.691 951.054 277.329 951.054 276.888ZM389.886 193.947C389.886 190.943 390.706 188.485 391.708 188.485C392.71 188.485 393.53 190.943 393.53 193.947C393.53 196.95 392.71 199.408 391.708 199.408C390.706 199.408 389.886 196.95 389.886 193.947ZM642.366 186.885C641.801 185.972 642.565 184.756 644.062 184.182C645.559 183.607 646.784 183.883 646.784 184.794C646.784 187.261 643.547 188.794 642.366 186.885ZM463.026 179.552C461.193 178.414 461.107 177.676 462.692 176.697C465.192 175.153 467.069 176.52 466.143 179.21C465.764 180.312 464.478 180.453 463.026 179.552ZM382.089 174.074C378.145 169.385 377.485 167.498 379.104 165.548C381.819 162.279 379.675 153.895 376.122 153.895C373.968 153.895 373.77 153.13 375.222 150.418C376.392 148.234 378.354 147.273 380.5 147.834C382.577 148.376 385.905 146.885 388.989 144.029C394.82 138.629 396.92 138.295 401.836 141.986C405.235 144.538 405.063 144.919 397.412 151.781C390.207 158.243 389.341 159.927 388.302 169.509L387.153 180.097L382.089 174.074ZM336.441 172.707C334.327 170.594 335.113 168.648 338.898 166.624C341.824 165.059 342.802 165.268 343.718 167.654C345.239 171.614 339.403 175.667 336.441 172.707ZM761.121 149.799C759.015 144.076 764.093 141.26 771.441 144.077C775.568 145.66 775.007 147.537 769.682 149.962C763.775 152.651 762.16 152.62 761.121 149.799ZM406.284 141.151C404.962 138.683 404.941 137.51 406.22 137.51C407.257 137.51 407.901 136.486 407.65 135.235C407.396 133.963 408.602 133.195 410.383 133.494C412.137 133.788 413.572 133.273 413.572 132.349C413.572 131.426 416.031 129.652 419.038 128.408C422.044 127.163 424.504 125.604 424.504 124.943C424.504 124.281 426.619 123.565 429.206 123.351C431.792 123.138 435.233 122.221 436.853 121.316C438.611 120.332 441.552 120.334 444.147 121.32C446.538 122.229 449.282 122.486 450.244 121.892C451.206 121.298 453.202 121.815 454.68 123.041C456.461 124.518 460.769 124.918 467.458 124.228C475.365 123.413 477.771 123.769 478.58 125.876C479.148 127.355 479.09 129.087 478.45 129.726C476.694 131.482 459.447 133.375 457.299 132.049C456.266 131.411 451.128 131.606 445.883 132.484C440.638 133.362 434.015 134.312 431.166 134.596C428.318 134.88 425.448 135.857 424.79 136.767C424.131 137.676 421.543 138.641 419.038 138.91C416.532 139.18 413.572 140.614 412.46 142.096C409.773 145.677 408.613 145.499 406.284 141.151ZM754.281 143.99C754.281 143.548 755.101 142.68 756.103 142.062C757.105 141.443 757.925 141.804 757.925 142.864C757.925 143.925 757.105 144.792 756.103 144.792C755.101 144.792 754.281 144.431 754.281 143.99ZM49.7476 140.774C48.7427 139.48 47.409 136.987 46.7839 135.235C46.1171 133.366 43.7851 132.049 41.1427 132.049C38.6651 132.049 36.1111 131.197 35.4669 130.155C34.7075 128.927 35.9507 128.677 39.0033 129.442C42.891 130.417 43.7109 129.988 43.7109 126.979C43.7109 120.409 52.6586 120.471 52.7929 127.042C52.8082 127.793 54.1001 128.408 55.6637 128.408C57.8339 128.408 58.3729 130.02 57.9412 135.22C57.3461 142.389 53.1886 145.207 49.7476 140.774ZM738.371 138.555C733.921 136.498 730.147 128.053 731.778 123.805C733.003 120.616 735.02 120.441 739.981 123.094C744.312 125.41 746.785 123.831 743.683 120.731C740.213 117.264 741.088 116.595 749.594 116.214C757.739 115.849 763.073 119.042 760.707 122.866C758.859 125.855 752.844 125.088 750.622 121.581C749.258 119.427 748.832 119.28 749.309 121.126C749.696 122.628 751.824 124.766 754.037 125.878L758.06 127.901L752.982 131.29C750.189 133.154 747.188 134.463 746.314 134.2C745.439 133.936 745.183 134.915 745.743 136.375C747.079 139.853 743.48 140.917 738.371 138.555ZM591.989 127.317C594.068 123.441 595.769 119.233 595.769 117.967C595.769 116.7 596.589 115.664 597.591 115.664C598.593 115.664 599.413 116.483 599.413 117.485C599.413 118.486 600.292 119.305 601.365 119.305C604.537 119.305 608.953 124.661 607.945 127.285C607.433 128.619 604.689 130.217 601.847 130.836C599.005 131.455 594.774 132.502 592.444 133.163L588.208 134.365L591.989 127.317ZM577.094 120.084C570.865 116.708 570.399 109.767 576.133 105.754C581.304 102.135 583.704 102.142 582.311 105.77C581.482 107.928 582.061 108.352 584.695 107.517C588.858 106.196 591.149 109.178 589.274 113.476C588.53 115.18 588.099 118.008 588.316 119.76C588.804 123.702 584.023 123.841 577.094 120.084ZM764.585 114.273C763.539 112.546 767.154 109.39 770.679 108.954C772.182 108.767 775.454 108.006 777.951 107.261C782.353 105.948 782.405 106.034 779.682 110.132C776.945 114.252 766.334 117.162 764.585 114.273ZM566.01 107.168C563.797 104.957 564.751 103.018 567.529 104.083C569.032 104.659 570.261 105.862 570.261 106.756C570.261 108.665 567.751 108.908 566.01 107.168ZM569.604 100.193C568.164 96.4435 571.37 90.1768 574.729 90.1768C576.113 90.1768 577.612 89.1527 578.059 87.9011C579.145 84.8625 580.659 86.4475 581.974 92.001C583.33 97.7222 581.54 100.487 575.501 102.001C572.019 102.874 570.449 102.393 569.604 100.193ZM890.929 91.2818C890.929 90.8883 892.159 90.0947 893.662 89.5184C895.165 88.9421 896.395 89.264 896.395 90.2339C896.395 91.2038 895.165 91.9973 893.662 91.9973C892.159 91.9973 890.929 91.6753 890.929 91.2818ZM483.62 66.3513C482.946 65.2628 483.11 63.6584 483.983 62.7861C486.138 60.633 490.88 63.7672 489.31 66.3064C487.718 68.8796 485.196 68.8995 483.62 66.3513ZM493.739 66.51C493.739 65.5087 495.427 64.6894 497.49 64.6894C499.553 64.6894 500.735 65.5087 500.115 66.51C499.496 67.5112 497.808 68.3305 496.364 68.3305C494.92 68.3305 493.739 67.5112 493.739 66.51ZM478.265 53.7871C477.626 52.7552 478.358 52.45 479.979 53.0717C483.136 54.2819 483.713 55.5868 481.092 55.5868C480.149 55.5868 478.877 54.777 478.265 53.7871ZM456.388 46.4842C450.773 45.0565 451.816 44.4359 460.366 44.1175C463.055 44.0174 465.583 44.9185 465.984 46.1201C466.782 48.5138 464.684 48.5935 456.388 46.4842ZM453.048 39.8089C452.38 39.1414 451.833 37.9893 451.833 37.2486C451.833 35.4983 458.877 37.335 460.168 39.4219C461.313 41.2739 454.865 41.6244 453.048 39.8089ZM900.354 32.794C897.318 26.1361 897.689 23.2276 901.861 20.9969C905.883 18.8458 906.02 19.1167 905.54 28.279C905.097 36.7278 902.986 38.5659 900.354 32.794Z" fill="url(#paint0_diamond_981_8480)"/>
<defs>
<radialGradient id="paint0_diamond_981_8480" cx="0" cy="0" r="1" gradientUnits="userSpaceOnUse" gradientTransform="translate(1082 77.3067) rotate(136.121) scale(1221.52 9715.09)">
<stop stop-color="#4111D5"/>
<stop offset="1" stop-color="#17064A"/>
</radialGradient>
</defs>
</svg>
