<svg width="275" height="239" viewBox="0 0 275 239" fill="none" xmlns="http://www.w3.org/2000/svg">
<path d="M146.747 32.3652L206.162 135.681L187.549 135.683L87.3332 135.682H68.72L59.4141 119.5L78.0253 119.499L96.6399 119.498L178.243 119.499L137.441 48.5488L146.747 32.3652Z" fill="url(#paint0_linear_9_3)"/>
<path d="M237.657 222.816H118.828L128.133 206.633L178.242 119.5L178.242 119.499L196.855 119.498L187.548 135.683L146.747 206.633H228.35L237.657 222.816Z" fill="url(#paint1_linear_9_3)"/>
<path d="M265.576 238.998L246.964 238.999L146.748 238.998H137.441L128.135 238.999L27.9192 238.998H9.30594L0 222.816L18.6105 222.816L37.2251 222.815L118.829 222.816L78.0262 151.865L87.3328 135.682L137.441 222.816L156.054 222.815L237.657 222.816L196.855 151.865L206.162 135.682L265.576 238.998Z" fill="url(#paint2_linear_9_3)"/>
<path d="M274.882 222.816L265.576 238.998L256.27 222.817L246.962 206.633L206.161 135.683L165.36 206.634H146.746L196.855 119.499L187.548 103.315L146.747 32.3651L105.945 103.316H87.332L146.746 0L156.054 16.1815L206.161 103.315L213.643 116.325L215.468 119.498L215.469 119.499L265.576 206.633L274.882 222.816Z" fill="url(#paint3_linear_9_3)"/>
<path d="M87.3336 135.682L46.5312 206.633H27.918L78.0263 119.5L87.3336 135.682Z" fill="url(#paint4_linear_9_3)"/>
<path d="M146.746 206.632L137.44 222.816L128.133 206.632L87.332 135.682H105.945L146.746 206.632Z" fill="url(#paint5_linear_9_3)"/>
<path d="M109.522 206.633L118.829 222.816H0L9.30526 206.633L59.4136 119.5L59.4143 119.499L68.7196 103.315L118.828 16.1829L128.135 0H146.746L137.442 16.1808L128.135 32.3658L87.3328 103.315H168.937L178.244 119.499H78.0262L68.7202 135.683L27.9185 206.633H109.522Z" fill="url(#paint6_linear_9_3)"/>
<defs>
<linearGradient id="paint0_linear_9_3" x1="84.3919" y1="135.658" x2="144.107" y2="5.58727" gradientUnits="userSpaceOnUse">
<stop stop-color="#BBCEFF"/>
<stop offset="0.170678" stop-color="#BBCEFF"/>
<stop offset="0.390367" stop-color="#1568A5"/>
<stop offset="0.770518" stop-color="#7D8AFF"/>
<stop offset="1" stop-color="#475AFF"/>
</linearGradient>
<linearGradient id="paint1_linear_9_3" x1="182.867" y1="222.803" x2="166.871" y2="107.475" gradientUnits="userSpaceOnUse">
<stop stop-color="#BBCEFF"/>
<stop offset="0.403381" stop-color="#7D8AFF"/>
<stop offset="0.905343" stop-color="#475AFF"/>
</linearGradient>
<linearGradient id="paint2_linear_9_3" x1="-29.8687" y1="206.566" x2="139.923" y2="50.199" gradientUnits="userSpaceOnUse">
<stop offset="0.105431" stop-color="#1568A5"/>
<stop offset="0.49628" stop-color="#BBCEFF"/>
<stop offset="0.848958" stop-color="#7D8AFF"/>
<stop offset="1" stop-color="#475AFF"/>
</linearGradient>
<linearGradient id="paint3_linear_9_3" x1="118.36" y1="44.5948" x2="268.529" y2="224.911" gradientUnits="userSpaceOnUse">
<stop stop-color="#BBCEFF"/>
<stop offset="0.645833" stop-color="#1568A5"/>
<stop offset="0.848958" stop-color="#7D8AFF"/>
<stop offset="1" stop-color="#475AFF"/>
</linearGradient>
<linearGradient id="paint4_linear_9_3" x1="87.3452" y1="117.5" x2="2.52804" y2="228.716" gradientUnits="userSpaceOnUse">
<stop stop-color="#BBCEFF"/>
<stop offset="0.716866" stop-color="#1568A5"/>
<stop offset="0.848958" stop-color="#7D8AFF"/>
<stop offset="1" stop-color="#475AFF"/>
</linearGradient>
<linearGradient id="paint5_linear_9_3" x1="74.9578" y1="124.687" x2="150.49" y2="228.951" gradientUnits="userSpaceOnUse">
<stop stop-color="#BBCEFF"/>
<stop offset="0.645833" stop-color="#1568A5"/>
<stop offset="0.848958" stop-color="#7D8AFF"/>
<stop offset="1" stop-color="#475AFF"/>
</linearGradient>
<linearGradient id="paint6_linear_9_3" x1="-20.0466" y1="152.87" x2="174.573" y2="97.0914" gradientUnits="userSpaceOnUse">
<stop stop-color="#BBCEFF"/>
<stop offset="0.645833" stop-color="#1568A5"/>
<stop offset="0.848958" stop-color="#7D8AFF"/>
<stop offset="1" stop-color="#475AFF"/>
</linearGradient>
</defs>
</svg>
