<svg xmlns="http://www.w3.org/2000/svg" width="45" height="45" viewBox="0 0 45 45" fill="none">
<path d="M38.4075 6.5877C29.6194 -2.19776 15.3732 -2.19565 6.5877 6.59253C-2.19776 15.3807 -2.19565 29.6269 6.59253 38.4124C15.3807 47.1978 29.6269 47.1957 38.4124 38.4075C40.5014 36.3179 42.1583 33.8373 43.2887 31.1073C44.419 28.3773 45.0005 25.4514 45.0001 22.4966C44.9996 19.5419 44.4172 16.6161 43.286 13.8865C42.1549 11.1568 40.4972 8.6767 38.4075 6.5877ZM34.0755 31.3423L34.0725 31.3453V31.3378L32.9325 32.4703C32.2075 33.2043 31.3056 33.7391 30.3137 34.0229C29.3218 34.3066 28.2734 34.3298 27.2699 34.0903C25.2138 33.5399 23.2591 32.6638 21.48 31.4953C19.8271 30.439 18.2954 29.204 16.9125 27.8128C15.6401 26.5497 14.497 25.1628 13.4999 23.6728C12.4094 22.0695 11.5462 20.3229 10.9349 18.4827C10.5914 17.4228 10.5497 16.2882 10.8147 15.2059C11.0796 14.1237 11.6407 13.1366 12.435 12.3553L13.7699 11.0203C14.1411 10.6475 14.7442 10.6461 15.117 11.0173L15.1199 11.0203L19.3349 15.2353C19.7077 15.6064 19.7091 16.2095 19.3379 16.5823L19.3349 16.5853L16.8599 19.0603C16.1498 19.7627 16.0605 20.8789 16.6499 21.6853C17.5451 22.9138 18.5357 24.0699 19.6125 25.1428C20.813 26.3485 22.1181 27.4453 23.5124 28.4203C24.3181 28.9823 25.4104 28.8876 26.1074 28.1953L28.4999 25.7653C28.871 25.3925 29.4742 25.3912 29.8469 25.7624L29.8499 25.7653L34.0724 29.9953C34.4453 30.3664 34.4467 30.9694 34.0755 31.3423Z" fill="url(#paint0_diamond_981_8453)"/>
<defs>
<radialGradient id="paint0_diamond_981_8453" cx="0" cy="0" r="1" gradientUnits="userSpaceOnUse" gradientTransform="translate(45.0001 5.9063) rotate(119.514) scale(74.3332 507.282)">
<stop stop-color="#4111D5"/>
<stop offset="1" stop-color="#17064A"/>
</radialGradient>
</defs>
</svg>