<svg xmlns="http://www.w3.org/2000/svg" width="45" height="45" viewBox="0 0 45 45" fill="none">
<path d="M38.4067 6.59189C29.6181 -2.19664 15.3935 -2.19796 6.60375 6.59189C-0.463523 13.6591 -1.79899 24.1675 2.3792 32.5361L0.06282 42.7251C-0.238261 44.0494 0.948648 45.2368 2.27348 44.9357L12.4625 42.6194C27.2772 50.0159 44.9935 39.3075 44.9935 22.4934C44.9935 16.4868 42.6543 10.8395 38.4067 6.59189ZM27.1963 28.0934H13.123C12.1028 28.0934 11.2758 27.2664 11.2758 26.2463C11.2758 25.2261 12.1028 24.3991 13.123 24.3991H27.1963C28.2164 24.3991 29.0434 25.2261 29.0434 26.2463C29.0434 27.2664 28.2164 28.0934 27.1963 28.0934ZM31.8875 20.5876H13.123C12.1028 20.5876 11.2758 19.7607 11.2758 18.7405C11.2758 17.7204 12.1028 16.8934 13.123 16.8934H31.8875C32.9076 16.8934 33.7346 17.7204 33.7346 18.7405C33.7346 19.7607 32.9075 20.5876 31.8875 20.5876Z" fill="url(#paint0_diamond_981_8460)"/>
<defs>
<radialGradient id="paint0_diamond_981_8460" cx="0" cy="0" r="1" gradientUnits="userSpaceOnUse" gradientTransform="translate(44.9935 5.90629) rotate(119.502) scale(74.3242 507.093)">
<stop stop-color="#4111D5"/>
<stop offset="1" stop-color="#17064A"/>
</radialGradient>
</defs>
</svg>