<svg width="0" height="0" xmlns="http://www.w3.org/2000/svg">
  <symbol id="telegram" viewBox="0 0 30 30">
    <path d="M15 0C6.72 0 0 6.72 0 15C0 23.28 6.72 30 15 30C23.28 30 30 23.28 30 15C30 6.72 23.28 0 15 0ZM21.96 10.2C21.735 12.57 20.76 18.33 20.265 20.985C20.055 22.11 19.635 22.485 19.245 22.53C18.375 22.605 17.715 21.96 16.875 21.405C15.555 20.535 14.805 19.995 13.53 19.155C12.045 18.18 13.005 17.64 13.86 16.77C14.085 16.545 17.925 13.05 18 12.735C18.0104 12.6873 18.009 12.6378 17.996 12.5907C17.9829 12.5437 17.9585 12.5005 17.925 12.465C17.835 12.39 17.715 12.42 17.61 12.435C17.475 12.465 15.375 13.86 11.28 16.62C10.68 17.025 10.14 17.235 9.66 17.22C9.12 17.205 8.1 16.92 7.335 16.665C6.39 16.365 5.655 16.2 5.715 15.675C5.745 15.405 6.12 15.135 6.825 14.85C11.205 12.945 14.115 11.685 15.57 11.085C19.74 9.345 20.595 9.045 21.165 9.045C21.285 9.045 21.57 9.075 21.75 9.225C21.9 9.345 21.945 9.51 21.96 9.63C21.945 9.72 21.975 9.99 21.96 10.2V10.2Z"/>
  </symbol>
  <symbol id="vk" viewBox="0 0 30 30">
    <path d="M15.0016 0.599609C7.04856 0.599609 0.601562 7.04661 0.601562 14.9996C0.601562 22.9526 7.04856 29.3996 15.0016 29.3996C22.9546 29.3996 29.4016 22.9526 29.4016 14.9996C29.4016 7.04661 22.9546 0.599609 15.0016 0.599609ZM20.5396 16.8461C20.5396 16.8461 21.8131 18.1031 22.1266 18.6866C22.1356 18.6986 22.1401 18.7106 22.1431 18.7166C22.2706 18.9311 22.3006 19.0976 22.2376 19.2221C22.1326 19.4291 21.7726 19.5311 21.6496 19.5401H19.3996C19.2436 19.5401 18.9166 19.4996 18.5206 19.2266C18.2161 19.0136 17.9161 18.6641 17.6236 18.3236C17.1871 17.8166 16.8091 17.3786 16.4281 17.3786C16.3797 17.3785 16.3316 17.3861 16.2856 17.4011C15.9976 17.4941 15.6286 17.9051 15.6286 19.0001C15.6286 19.3421 15.3586 19.5386 15.1681 19.5386H14.1376C13.7866 19.5386 11.9581 19.4156 10.3381 17.7071C8.35506 15.6146 6.57006 11.4176 6.55506 11.3786C6.44256 11.1071 6.67506 10.9616 6.92856 10.9616H9.20106C9.50406 10.9616 9.60306 11.1461 9.67206 11.3096C9.75306 11.5001 10.0501 12.2576 10.5376 13.1096C11.3281 14.4986 11.8126 15.0626 12.2011 15.0626C12.2739 15.0618 12.3455 15.0432 12.4096 15.0086C12.9166 14.7266 12.8221 12.9191 12.7996 12.5441C12.7996 12.4736 12.7981 11.7356 12.5386 11.3816C12.3526 11.1251 12.0361 11.0276 11.8441 10.9916C11.9218 10.8844 12.0242 10.7974 12.1426 10.7381C12.4906 10.5641 13.1176 10.5386 13.7401 10.5386H14.0866C14.7616 10.5476 14.9356 10.5911 15.1801 10.6526C15.6751 10.7711 15.6856 11.0906 15.6421 12.1841C15.6286 12.4946 15.6151 12.8456 15.6151 13.2596C15.6151 13.3496 15.6106 13.4456 15.6106 13.5476C15.5956 14.1041 15.5776 14.7356 15.9706 14.9951C16.0218 15.0273 16.0811 15.0444 16.1416 15.0446C16.2781 15.0446 16.6891 15.0446 17.8021 13.1351C18.1453 12.5205 18.4436 11.8818 18.6946 11.2241C18.7171 11.1851 18.7831 11.0651 18.8611 11.0186C18.9186 10.9893 18.9825 10.9743 19.0471 10.9751H21.7186C22.0096 10.9751 22.2091 11.0186 22.2466 11.1311C22.3126 11.3096 22.2346 11.8541 21.0151 13.5056L20.4706 14.2241C19.3651 15.6731 19.3651 15.7466 20.5396 16.8461V16.8461Z"/>
  </symbol>
  <symbol id="whatsapp" viewBox="0 0 30 30">
    <path d="M15 30C6.717 30 0 23.283 0 15C0 6.717 6.717 0 15 0C23.283 0 30 6.717 30 15C30 23.283 23.283 30 15 30Z"/>
    <path fill-rule="evenodd" clip-rule="evenodd" d="M22.0156 8.01602C20.1556 6.15302 17.6776 5.12702 15.0406 5.12402C9.60756 5.12402 5.18256 9.54602 5.18256 14.982C5.18256 16.719 5.63556 18.417 6.49956 19.911L5.10156 25.02L10.3276 23.649C11.7676 24.435 13.3876 24.849 15.0376 24.849H15.0406C20.4736 24.849 24.8956 20.427 24.8986 14.991C24.9016 12.357 23.8786 9.87902 22.0156 8.01602ZM15.0436 23.184H15.0406C13.5706 23.184 12.1276 22.788 10.8706 22.041L10.5706 21.864L7.46856 22.677L8.29656 19.653L8.10156 19.344C7.28256 18.039 6.84756 16.533 6.84756 14.982C6.85056 10.464 10.5256 6.78902 15.0466 6.78902C17.2366 6.78902 19.2916 7.64402 20.8396 9.19202C22.3876 10.74 23.2396 12.801 23.2366 14.988C23.2366 19.509 19.5586 23.184 15.0436 23.184ZM19.5376 17.046C19.2916 16.923 18.0796 16.326 17.8546 16.245C17.6296 16.164 17.4646 16.122 17.2996 16.368C17.1346 16.614 16.6636 17.169 16.5196 17.334C16.3756 17.499 16.2316 17.52 15.9856 17.397C15.7396 17.274 14.9446 17.013 14.0056 16.173C13.2736 15.519 12.7786 14.712 12.6346 14.466C12.4906 14.22 12.6196 14.085 12.7426 13.962C12.8536 13.851 12.9886 13.674 13.1116 13.53C13.2346 13.386 13.2766 13.284 13.3576 13.119C13.4386 12.954 13.3996 12.81 13.3366 12.687C13.2736 12.564 12.7816 11.352 12.5776 10.857C12.3766 10.377 12.1756 10.443 12.0226 10.434C11.8786 10.428 11.7136 10.425 11.5516 10.425C11.3866 10.425 11.1196 10.488 10.8946 10.734C10.6696 10.98 10.0336 11.577 10.0336 12.789C10.0336 14.001 10.9156 15.174 11.0386 15.336C11.1616 15.501 12.7756 17.988 15.2476 19.056C15.8356 19.311 16.2946 19.461 16.6516 19.575C17.2426 19.764 17.7796 19.737 18.2026 19.674C18.6766 19.602 19.6606 19.077 19.8646 18.504C20.0686 17.928 20.0686 17.436 20.0086 17.334C19.9486 17.232 19.7836 17.172 19.5376 17.046Z" fill="white"/>
  </symbol>
  <symbol id="arrow-up" viewBox="0 0 13 13">
    <path d="M1.4 13L0 11.6L9.6 2H1V0H13V12H11V3.4L1.4 13Z"/>
  </symbol>
  <symbol id="play" viewBox="0 0 106 106">
    <path fill-rule="evenodd" clip-rule="evenodd" d="M53 0.5C24.02 0.5 0.5 24.02 0.5 53C0.5 81.98 24.02 105.5 53 105.5C81.98 105.5 105.5 81.98 105.5 53C105.5 24.02 81.98 0.5 53 0.5ZM42.5 71.375V34.625C42.5 34.1375 42.6357 33.6596 42.892 33.245C43.1483 32.8303 43.515 32.4951 43.9511 32.2771C44.3871 32.0591 44.8752 31.9668 45.3607 32.0106C45.8463 32.0544 46.31 32.2325 46.7 32.525L71.2175 50.9C72.635 51.95 72.635 54.05 71.2175 55.1L46.7 73.475C46.31 73.7675 45.8463 73.9456 45.3607 73.9894C44.8752 74.0332 44.3871 73.9409 43.9511 73.7229C43.515 73.5049 43.1483 73.1697 42.892 72.755C42.6357 72.3404 42.5 71.8625 42.5 71.375Z"/>
  </symbol>
  <symbol id="modal-close" viewBox="0 0 60 60">
    <path fill-rule="evenodd" clip-rule="evenodd" d="M60 30C60 46.5685 46.5685 60 30 60C13.4315 60 0 46.5685 0 30C0 13.4315 13.4315 0 30 0C46.5685 0 60 13.4315 60 30ZM32.3655 29.8459L46.4942 43.9745L44.1371 46.3316L30.0085 32.2029L15.6891 46.5223L13.332 44.1653L27.6514 29.8459L13.4958 15.6903L15.8529 13.3333L30.0085 27.4889L43.9733 13.524L46.3303 15.881L32.3655 29.8459Z"/>
  </symbol>
  <symbol id="link-arrow-s" viewBox="0 0 7 10">
    <path fill-rule="evenodd" clip-rule="evenodd" d="M1.0125 9.99922L0.125 9.11172L4.2375 4.99922L0.125 0.886718L1.0125 -0.000782013L6.0125 4.99922L1.0125 9.99922Z"/>
  </symbol>
    <symbol id="link-arrow-l" viewBox="0 0 181 15">
    <path d="M180.707 8.20711C181.098 7.81658 181.098 7.18342 180.707 6.79289L174.343 0.428932C173.953 0.0384078 173.319 0.0384078 172.929 0.428932C172.538 0.819457 172.538 1.45262 172.929 1.84315L178.586 7.5L172.929 13.1569C172.538 13.5474 172.538 14.1805 172.929 14.5711C173.319 14.9616 173.953 14.9616 174.343 14.5711L180.707 8.20711ZM0 8.5H180V6.5H0V8.5Z"/>
  </symbol>
  <symbol id="prev-next-btn" viewBox="0 0 21 8">
    <path d="M20.8536 4.35356C21.0488 4.15829 21.0488 3.84171 20.8536 3.64645L17.6716 0.464468C17.4763 0.269205 17.1597 0.269205 16.9645 0.464468C16.7692 0.65973 16.7692 0.976312 16.9645 1.17157L19.7929 4L16.9645 6.82843C16.7692 7.02369 16.7692 7.34027 16.9645 7.53554C17.1597 7.7308 17.4763 7.7308 17.6716 7.53554L20.8536 4.35356ZM0.5 4.5L20.5 4.5L20.5 3.5L0.5 3.5L0.5 4.5Z"/>
  </symbol>
    <symbol id="circle" viewBox="0 0 38 38">
      <rect x="9" y="9" width="20" height="20" rx="10" stroke="none"/>
      <circle cx="19" cy="19" r="18.5" fill="none" stroke-width="1"/>
  </symbol>
</svg>