<svg xmlns="http://www.w3.org/2000/svg" width="30" height="30" viewBox="0 0 30 30" fill="none">
<path d="M15 30C6.717 30 0 23.283 0 15C0 6.717 6.717 0 15 0C23.283 0 30 6.717 30 15C30 23.283 23.283 30 15 30Z" fill="url(#paint0_diamond_740_2667)"/>
<path fill-rule="evenodd" clip-rule="evenodd" d="M22.0156 8.01602C20.1556 6.15302 17.6776 5.12702 15.0406 5.12402C9.60756 5.12402 5.18256 9.54602 5.18256 14.982C5.18256 16.719 5.63556 18.417 6.49956 19.911L5.10156 25.02L10.3276 23.649C11.7676 24.435 13.3876 24.849 15.0376 24.849H15.0406C20.4736 24.849 24.8956 20.427 24.8986 14.991C24.9016 12.357 23.8786 9.87902 22.0156 8.01602ZM15.0436 23.184H15.0406C13.5706 23.184 12.1276 22.788 10.8706 22.041L10.5706 21.864L7.46856 22.677L8.29656 19.653L8.10156 19.344C7.28256 18.039 6.84756 16.533 6.84756 14.982C6.85056 10.464 10.5256 6.78902 15.0466 6.78902C17.2366 6.78902 19.2916 7.64402 20.8396 9.19202C22.3876 10.74 23.2396 12.801 23.2366 14.988C23.2366 19.509 19.5586 23.184 15.0436 23.184ZM19.5376 17.046C19.2916 16.923 18.0796 16.326 17.8546 16.245C17.6296 16.164 17.4646 16.122 17.2996 16.368C17.1346 16.614 16.6636 17.169 16.5196 17.334C16.3756 17.499 16.2316 17.52 15.9856 17.397C15.7396 17.274 14.9446 17.013 14.0056 16.173C13.2736 15.519 12.7786 14.712 12.6346 14.466C12.4906 14.22 12.6196 14.085 12.7426 13.962C12.8536 13.851 12.9886 13.674 13.1116 13.53C13.2346 13.386 13.2766 13.284 13.3576 13.119C13.4386 12.954 13.3996 12.81 13.3366 12.687C13.2736 12.564 12.7816 11.352 12.5776 10.857C12.3766 10.377 12.1756 10.443 12.0226 10.434C11.8786 10.428 11.7136 10.425 11.5516 10.425C11.3866 10.425 11.1196 10.488 10.8946 10.734C10.6696 10.98 10.0336 11.577 10.0336 12.789C10.0336 14.001 10.9156 15.174 11.0386 15.336C11.1616 15.501 12.7756 17.988 15.2476 19.056C15.8356 19.311 16.2946 19.461 16.6516 19.575C17.2426 19.764 17.7796 19.737 18.2026 19.674C18.6766 19.602 19.6606 19.077 19.8646 18.504C20.0686 17.928 20.0686 17.436 20.0086 17.334C19.9486 17.232 19.7836 17.172 19.5376 17.046Z" fill="white"/>
<defs>
<radialGradient id="paint0_diamond_740_2667" cx="0" cy="0" r="1" gradientUnits="userSpaceOnUse" gradientTransform="translate(30 3.93753) rotate(119.514) scale(49.5554 338.188)">
<stop stop-color="#4111D5"/>
<stop offset="1" stop-color="#17064A"/>
</radialGradient>
</defs>
</svg>