<svg xmlns="http://www.w3.org/2000/svg" width="485" height="110" viewBox="0 0 485 110" fill="none">
<path d="M60.8096 82.9169L61.1259 82.364L59.5421 79.5186L59.0676 78.6493L55.5043 72.5636L48.6946 60.708H39.3516L56.2171 90.5041L60.8096 82.9169Z" fill="#163071"/>
<path d="M75.7741 52.251H69.756L64.6096 60.7869L57.2461 72.8789L61.9173 81.0984L79.4162 52.251H75.7741Z" fill="#163071"/>
<path d="M86.5441 83.0739L73.3214 82.9953L62.3945 82.916L57.4062 91.1355H91.1366L86.5441 83.0739Z" fill="#163071"/>
<path d="M57.6406 29.0942L64.0545 40.7118L69.7548 50.9072L79.4149 50.9865L62.3125 21.1904L57.6406 29.0942Z" fill="#163071"/>
<path d="M38.2449 58.7321L38.6407 59.3643L49.4889 59.4436H63.8202L66.9083 54.3852L68.2537 52.2514L34.5234 52.1729L38.2449 58.7321Z" fill="#163071"/>
<path d="M39.4314 82.9165H13.9356L33.0175 50.8287L68.2521 50.9073L63.2639 41.9763H38.0057L60.8099 2.06412L52.1789 1.90625L0 91.136H43.9444L39.4314 82.9165Z" fill="#163071"/>
<path d="M81.0004 70.5871L87.1759 81.5726L93.4316 92.4795H55.8209L55.4252 91.768L38.2433 61.4189L33.6509 69.4805L46.1615 92.4795H0L4.67192 99.9089L107.208 100.462L85.9886 62.4462L81.0004 70.5871Z" fill="#163071"/>
<path d="M16.2305 81.5728H25.0991L32.0669 69.4808L37.5303 60.0755L37.1338 59.364L33.4123 52.8047L16.2305 81.5728Z" fill="#163071"/>
<path d="M61.9201 2.77539L40.3047 40.7117H49.1726L56.0609 29.094L62.3953 18.5821L81.0028 50.9864L81.3191 51.6186L76.0145 60.4702L71.8178 67.2674L63.1876 81.5726L72.5307 81.6519L79.419 70.5078L86.0697 59.838L108.241 99.6717L112.278 91.6894L61.9201 2.77539Z" fill="#163071"/>
<path d="M146.566 0.510742C146.938 0.510742 147.298 0.510742 147.644 0.510742C147.99 0.510742 148.351 0.537424 148.725 0.590787V0.510742H160L174.396 53.0353H162.64L160.24 43.9338H145.527L143.127 53.0353H131.93L146.566 0.510742ZM152.964 10.6468C152.696 12.084 152.336 13.8005 151.883 15.7964C151.429 17.7931 150.949 19.9217 150.442 22.1823C149.937 24.4435 149.404 26.7856 148.844 29.2085C148.284 31.6298 147.737 33.9845 147.205 36.2732H158.562C158.081 33.9845 157.56 31.6298 157 29.2085C156.442 26.7856 155.909 24.4435 155.402 22.1823C154.895 19.9217 154.428 17.7931 154 15.7964C153.574 13.8005 153.229 12.084 152.964 10.6468Z" fill="#163071"/>
<path d="M180.234 0.510742H191.351V23.4986L204.227 0.510742H216.624L201.75 24.299C204.468 29.1418 207.213 33.9311 209.986 38.6686C212.757 43.4046 215.502 48.1933 218.222 53.0353H205.026L191.351 27.4119V53.0353H180.234V0.510742Z" fill="#163071"/>
<path d="M233.894 0.510742C234.266 0.510742 234.626 0.510742 234.972 0.510742C235.318 0.510742 235.679 0.537424 236.054 0.590787V0.510742H247.328L261.724 53.0353H249.968L247.568 43.9338H232.855L230.455 53.0353H219.258L233.894 0.510742ZM240.292 10.6468C240.025 12.084 239.664 13.8005 239.211 15.7964C238.757 17.7931 238.277 19.9217 237.77 22.1823C237.265 24.4435 236.732 26.7856 236.172 29.2085C235.612 31.6298 235.065 33.9845 234.533 36.2732H245.89C245.409 33.9845 244.888 31.6298 244.328 29.2085C243.77 26.7856 243.237 24.4435 242.73 22.1823C242.223 19.9217 241.756 17.7931 241.328 15.7964C240.902 13.8005 240.557 12.084 240.292 10.6468Z" fill="#163071"/>
<path d="M304.269 0.510742V43.8567H309.068V65.1695H299.472V53.0353H273.561V64.8494H263.965V44.6542C265.616 44.3874 267.002 43.962 268.123 43.3765C269.083 41.78 269.843 39.6647 270.401 37.0321C270.961 34.3981 271.4 31.2711 271.72 27.652C272.04 24.0337 272.281 19.9491 272.441 15.3992C272.602 10.8477 272.787 5.88489 273 0.510742H304.269ZM282.837 9.84936C282.73 13.8398 282.596 17.5923 282.436 21.1061C282.277 24.6185 282.038 27.8381 281.717 30.7649C281.398 33.6925 280.945 36.2599 280.357 38.467C279.77 40.6749 278.971 42.4715 277.96 43.8567H293.315V9.84936H282.837Z" fill="#163071"/>
<path d="M315.703 53.0353V0.510742H344.174V9.52918H326.9V21.6634H340.016V30.1245H326.9V44.0139H344.174V53.0353H315.703Z" fill="#163071"/>
<path d="M400.078 53.0353H388.881C388.827 52.1303 388.733 50.84 388.599 49.1634C388.466 47.4877 388.333 45.5992 388.201 43.498C388.068 41.3954 387.907 39.1726 387.719 36.8305C387.533 34.4885 387.373 32.2405 387.241 30.086C387.108 27.93 386.975 25.9207 386.84 24.0589C386.707 22.1956 386.615 20.7051 386.561 19.5882C386.295 20.4405 385.936 21.6649 385.483 23.2614C385.029 24.8564 384.522 26.6129 383.962 28.5296C383.402 30.4447 382.814 32.454 382.201 34.5567C381.589 36.6579 381.003 38.6264 380.443 40.4622C379.884 42.2988 379.391 43.9486 378.964 45.4132C378.538 46.8762 378.218 47.9265 378.004 48.5646H370.407C370.193 47.9265 369.859 46.8888 369.406 45.4517C368.955 44.0154 368.448 42.3789 367.888 40.5423C367.328 38.7064 366.74 36.7505 366.127 34.6753C365.515 32.6 364.916 30.6048 364.33 28.6896C363.744 26.773 363.224 25.0031 362.771 23.38C362.317 21.7576 361.984 20.4939 361.77 19.5882L359.531 53.0353H348.734L353.772 0.510742H364.568C364.835 1.25635 365.222 2.43998 365.729 4.06238C366.235 5.68552 366.809 7.54806 367.449 9.65073C368.088 11.7519 368.767 13.9873 369.486 16.3567C370.206 18.7247 370.887 21.0135 371.527 23.2228C372.166 25.4308 372.739 27.4653 373.246 29.327C373.753 31.1888 374.139 32.6259 374.405 33.6376C374.672 32.6259 375.071 31.2022 375.605 29.3656C376.139 27.5297 376.726 25.5078 377.366 23.2999C378.005 21.0928 378.685 18.8048 379.403 16.4368C380.124 14.0673 380.817 11.8179 381.482 9.68927C382.149 7.56066 382.736 5.68552 383.244 4.06238C383.75 2.43998 384.136 1.25635 384.402 0.510742H395.278L400.078 53.0353Z" fill="#163071"/>
<path d="M443.421 53.0353H432.865V26.5344C432.865 25.3092 432.931 24.0581 433.064 22.7811C433.196 21.5048 433.263 20.5739 433.263 19.9884H433.183L416.47 53.0353H407.031V0.510742H417.59V27.2518C417.59 28.3687 417.536 29.579 417.429 30.8835C417.323 32.1879 417.269 33.1329 417.269 33.7177C420.094 28.2375 422.88 22.7159 425.624 17.1542C428.37 11.5926 431.156 6.04498 433.982 0.510742H443.421V53.0353Z" fill="#163071"/>
<path d="M484.925 53.0351H474.369V32.92C474.102 32.92 473.608 32.9467 472.887 33C472.169 33.0534 471.303 33.0801 470.292 33.0801L461.895 53.0351H450.137L460.375 31.6422C459.256 31.2153 458.163 30.6165 457.096 29.8457C456.028 29.0749 455.082 28.0906 454.256 26.8929C453.431 25.6952 452.777 24.2855 452.296 22.6623C451.816 21.0377 451.577 19.1611 451.577 17.0325C451.577 10.8067 453.163 6.41759 456.335 3.86355C459.507 1.30803 464.319 0.0302734 470.77 0.0302734C473.544 0.0302734 476.25 0.110319 478.887 0.270409C481.526 0.4305 483.539 0.510545 484.925 0.510545V53.0351ZM469.412 25.0963C470.424 25.0963 471.396 25.057 472.329 24.9777C473.263 24.8969 473.943 24.8562 474.369 24.8562V8.65145C473.569 8.59808 472.809 8.5588 472.088 8.53286C471.37 8.50544 470.664 8.49136 469.971 8.49136C467.412 8.49136 465.573 9.1836 464.452 10.5666C463.333 11.9504 462.774 14.053 462.774 16.8754C462.774 19.6429 463.348 21.7048 464.494 23.0626C465.64 24.4189 467.28 25.0963 469.412 25.0963Z" fill="#163071"/>
<path d="M146.041 99.8477C143.238 99.8477 141.038 98.8323 139.445 96.8001H139.103C139.331 98.7886 139.445 99.9381 139.445 100.251V109.901H132.938V75.6059H138.23L139.148 78.6921H139.445C140.967 76.3366 143.223 75.1582 146.211 75.1582C149.028 75.1582 151.233 76.2447 152.825 78.4163C154.419 80.5887 155.216 83.6067 155.216 87.4704C155.216 90.0125 154.842 92.2212 154.096 94.0963C153.349 95.97 152.286 97.3975 150.906 98.3773C149.526 99.3578 147.904 99.8477 146.041 99.8477ZM144.12 80.3552C142.512 80.3552 141.338 80.8496 140.597 81.8375C139.858 82.824 139.475 84.4524 139.445 86.7233V87.4288C139.445 89.9844 139.825 91.8165 140.585 92.9253C141.347 94.0326 142.555 94.5855 144.206 94.5855C147.123 94.5855 148.581 92.1856 148.581 87.3844C148.581 85.0423 148.221 83.2858 147.503 82.1132C146.784 80.9415 145.656 80.3552 144.12 80.3552Z" fill="#163071"/>
<path d="M157.18 75.6064H164.308L168.81 89.0037C169.194 90.168 169.458 91.5458 169.601 93.1364H169.728C169.884 91.6741 170.19 90.2962 170.646 89.0037L175.062 75.6064H182.042L171.947 102.469C171.022 104.953 169.702 106.813 167.988 108.049C166.275 109.283 164.273 109.901 161.982 109.901C160.857 109.901 159.755 109.781 158.674 109.54V104.384C159.456 104.569 160.309 104.663 161.234 104.663C162.386 104.663 163.393 104.311 164.254 103.607C165.116 102.903 165.788 101.842 166.271 100.423L166.654 99.2524L157.18 75.6064Z" fill="#163071"/>
<path d="M201.104 75.6064H208.274L198.82 87.0233L209.106 99.4214H201.722L191.968 87.3435V99.4214H185.461V75.6064H191.968V87.1715L201.104 75.6064Z" fill="#163071"/>
<path d="M217.705 87.4704C217.705 89.8287 218.091 91.6112 218.866 92.8186C219.642 94.0244 220.905 94.627 222.656 94.627C224.39 94.627 225.638 94.0274 226.398 92.8275C227.16 91.6283 227.541 89.8421 227.541 87.4704C227.541 85.1127 227.157 83.3451 226.389 82.1666C225.62 80.9867 224.361 80.3967 222.611 80.3967C220.877 80.3967 219.625 80.983 218.857 82.1548C218.088 83.3273 217.705 85.0986 217.705 87.4704ZM234.2 87.4704C234.2 91.3481 233.176 94.3809 231.126 96.5688C229.078 98.7553 226.226 99.8477 222.569 99.8477C220.278 99.8477 218.258 99.3482 216.508 98.3476C214.759 97.3456 213.414 95.9077 212.474 94.0341C211.536 92.1589 211.066 89.971 211.066 87.4704C211.066 83.5793 212.083 80.5538 214.117 78.3956C216.152 76.2373 219.012 75.1582 222.697 75.1582C224.988 75.1582 227.008 75.6555 228.759 76.6494C230.509 77.6441 231.854 79.0708 232.792 80.9304C233.731 82.7907 234.2 84.9704 234.2 87.4704Z" fill="#163071"/>
<path d="M261.601 81.847C261.601 83.1263 261.199 84.2158 260.395 85.117C259.591 86.0183 258.407 86.5978 256.843 86.8543V87.0233C258.536 87.2234 259.876 87.8022 260.865 88.7606C261.854 89.7196 262.35 90.901 262.35 92.3063C262.35 94.6209 261.439 96.3856 259.617 97.6011C257.795 98.8151 255.192 99.4214 251.806 99.4214H239.578V75.6064H251.806C255.079 75.6064 257.529 76.1356 259.157 77.1925C260.786 78.2502 261.601 79.8014 261.601 81.847ZM255.605 91.9653C255.605 91.0285 255.241 90.3511 254.515 89.9316C253.79 89.5128 252.701 89.3031 251.25 89.3031H246.086V94.927H251.378C252.758 94.927 253.808 94.6683 254.526 94.1503C255.245 93.6307 255.605 92.9022 255.605 91.9653ZM255.008 82.3569C255.008 80.9087 253.855 80.1838 251.55 80.1838H246.086V84.8917H250.802C252.182 84.8917 253.227 84.6931 253.938 84.2958C254.651 83.8985 255.008 83.2523 255.008 82.3569Z" fill="#163071"/>
<path d="M272.701 87.4704C272.701 89.8287 273.087 91.6112 273.862 92.8186C274.638 94.0244 275.901 94.627 277.652 94.627C279.386 94.627 280.634 94.0274 281.394 92.8275C282.156 91.6283 282.537 89.8421 282.537 87.4704C282.537 85.1127 282.153 83.3451 281.385 82.1666C280.617 80.9867 279.357 80.3967 277.607 80.3967C275.873 80.3967 274.621 80.983 273.853 82.1548C273.084 83.3273 272.701 85.0986 272.701 87.4704ZM289.196 87.4704C289.196 91.3481 288.172 94.3809 286.122 96.5688C284.074 98.7553 281.222 99.8477 277.566 99.8477C275.274 99.8477 273.254 99.3482 271.504 98.3476C269.755 97.3456 268.41 95.9077 267.47 94.0341C266.532 92.1589 266.062 89.971 266.062 87.4704C266.062 83.5793 267.079 80.5538 269.113 78.3956C271.148 76.2373 274.008 75.1582 277.693 75.1582C279.984 75.1582 282.004 75.6555 283.755 76.6494C285.505 77.6441 286.85 79.0708 287.789 80.9304C288.727 82.7907 289.196 84.9704 289.196 87.4704Z" fill="#163071"/>
<path d="M309.515 94.672V80.4833H304.626C304.269 83.1263 303.781 85.6329 303.162 88.0046C302.544 90.3763 301.687 92.599 300.593 94.672H309.515ZM319.524 107.963H313.676V99.4214H297.625V107.963H291.777V94.672H293.785C295.151 92.5553 296.296 89.8856 297.221 86.6616C298.146 83.4383 298.793 79.7532 299.164 75.6064H316.022V94.672H319.524V107.963Z" fill="#163071"/>
<path d="M329.895 75.6064V85.0221C329.895 86.0168 329.732 88.4448 329.405 92.3063L340.418 75.6064H348.25V99.4214H341.954V89.9197C341.954 88.2299 342.096 85.8448 342.381 82.7631L331.413 99.4214H323.602V75.6064H329.895Z" fill="#163071"/>
<path d="M374.815 75.6064V80.4833H367.004V99.4214H360.496V80.4833H352.664V75.6064H374.815Z" fill="#163071"/>
<path d="M389.138 79.7801C387.758 79.7801 386.676 80.2174 385.892 81.0904C385.11 81.9643 384.663 83.2035 384.55 84.8081H393.683C393.654 83.2035 393.235 81.9643 392.423 81.0904C391.613 80.2174 390.518 79.7801 389.138 79.7801ZM390.056 99.8477C386.213 99.8477 383.21 98.7893 381.048 96.6726C378.886 94.5558 377.805 91.5601 377.805 87.6838C377.805 83.6934 378.803 80.6087 380.801 78.4282C382.801 76.2484 385.565 75.1582 389.094 75.1582C392.466 75.1582 395.09 76.1173 396.968 78.0339C398.846 79.9513 399.786 82.5994 399.786 85.9791V89.1306H384.398C384.47 90.979 385.017 92.4213 386.041 93.4589C387.066 94.4951 388.504 95.0124 390.353 95.0124C391.791 95.0124 393.149 94.8634 394.428 94.5647C395.709 94.2668 397.046 93.7902 398.441 93.1358V98.1638C397.304 98.7315 396.088 99.1533 394.793 99.4297C393.499 99.7084 391.919 99.8477 390.056 99.8477Z" fill="#163071"/>
<path d="M426.44 99.4214H419.933V80.4833H413.936C413.48 85.81 412.925 89.7834 412.27 92.4041C411.617 95.0234 410.745 96.9185 409.657 98.0903C408.567 99.2628 407.141 99.8483 405.377 99.8483C403.869 99.8483 402.632 99.6208 401.664 99.1664V93.9665C402.361 94.2511 403.058 94.3934 403.755 94.3934C404.567 94.3934 405.246 93.8116 405.792 92.6472C406.34 91.4836 406.832 89.5417 407.266 86.8217C407.699 84.1024 408.072 80.364 408.385 75.6064H426.44V99.4214Z" fill="#163071"/>
<path d="M443.154 79.7801C441.774 79.7801 440.692 80.2174 439.908 81.0904C439.125 81.9643 438.678 83.2035 438.565 84.8081H447.698C447.67 83.2035 447.251 81.9643 446.439 81.0904C445.629 80.2174 444.534 79.7801 443.154 79.7801ZM444.072 99.8477C440.229 99.8477 437.226 98.7893 435.064 96.6726C432.901 94.5558 431.82 91.5601 431.82 87.6838C431.82 83.6934 432.819 80.6087 434.817 78.4282C436.817 76.2484 439.581 75.1582 443.11 75.1582C446.481 75.1582 449.106 76.1173 450.983 78.0339C452.862 79.9513 453.802 82.5994 453.802 85.9791V89.1306H438.414C438.485 90.979 439.032 92.4213 440.056 93.4589C441.082 94.4951 442.519 95.0124 444.369 95.0124C445.806 95.0124 447.164 94.8634 448.444 94.5647C449.725 94.2668 451.062 93.7902 452.456 93.1358V98.1638C451.32 98.7315 450.104 99.1533 448.809 99.4297C447.514 99.7084 445.935 99.8477 444.072 99.8477Z" fill="#163071"/>
<path d="M465.387 75.6062V85.0219C465.387 86.0165 465.224 88.4446 464.897 92.306L475.91 75.6062H483.742V99.4211H477.446V89.9195C477.446 88.2296 477.588 85.8446 477.873 82.7628L466.905 99.4211H459.094V75.6062H465.387ZM481.85 65.3574C481.581 68.0137 480.578 69.9496 478.842 71.1652C477.107 72.3792 474.603 72.9854 471.33 72.9854C467.958 72.9854 465.465 72.4036 463.849 71.2393C462.235 70.0734 461.328 68.1131 461.128 65.3574H466.956C467.054 66.8205 467.42 67.847 468.054 68.4377C468.688 69.0269 469.822 69.3211 471.458 69.3211C472.896 69.3211 473.966 68.998 474.669 68.3517C475.373 67.7054 475.804 66.7078 475.961 65.3574H481.85Z" fill="#163071"/>
</svg>